HIERARCHY
ROOT Hips
{
	OFFSET 54.520500 -14.901514 85.712898
	CHANNELS 6 Xposition Yposition Zposition Xrotation Yrotation Zrotation
	JOINT spine
	{
		OFFSET 0.000000 -0.367607 6.392601
		CHANNELS 3 Xrotation Yrotation Zrotation
		JOINT spine1
		{
			OFFSET 0.000000 -0.000001 9.176109
			CHANNELS 3 Xrotation Yrotation Zrotation
			JOINT spine2
			{
				OFFSET 0.000000 -0.000002 8.792381
				CHANNELS 3 Xrotation Yrotation Zrotation
				JOINT Neck
				{
					OFFSET 0.000000 -1.076243 22.573700
					CHANNELS 3 Xrotation Yrotation Zrotation
					JOINT Head
					{
						OFFSET 0.000000 -0.000002 6.820114
						CHANNELS 3 Xrotation Yrotation Zrotation
						End Site
						{
							OFFSET 0.000000 5.444267 16.508499
						}
					}
				}
				JOINT RightShoulder
				{
					OFFSET -3.702209 0.515507 9.495087
					CHANNELS 3 Xrotation Yrotation Zrotation
					JOINT RightArm
					{
						OFFSET 0.000000 -0.000003 12.453705
						CHANNELS 3 Xrotation Yrotation Zrotation
						JOINT RightArmRoll
						{
							OFFSET 0.000000 -0.000001 6.286865
							CHANNELS 3 Xrotation Yrotation Zrotation
							JOINT RightForeArm
							{
								OFFSET 0.000000 -0.000003 18.311401
								CHANNELS 3 Xrotation Yrotation Zrotation
								JOINT RightForeArmRoll
								{
									OFFSET 0.000000 -0.000001 7.054825
									CHANNELS 3 Xrotation Yrotation Zrotation
									JOINT RightHand
									{
										OFFSET 0.000000 -0.000002 14.157501
										CHANNELS 3 Xrotation Yrotation Zrotation
										End Site
										{
											OFFSET 0.000000 0.000000 0.100006
										}
									}
								}
							}
						}
					}
				}
				JOINT LeftShoulder
				{
					OFFSET 3.702209 0.515507 9.495087
					CHANNELS 3 Xrotation Yrotation Zrotation
					JOINT LeftArm
					{
						OFFSET 0.000000 -0.000003 12.453705
						CHANNELS 3 Xrotation Yrotation Zrotation
						JOINT LeftArmRoll
						{
							OFFSET 0.000000 -0.000001 6.286865
							CHANNELS 3 Xrotation Yrotation Zrotation
							JOINT LeftForeArm
							{
								OFFSET 0.000000 -0.000003 18.311401
								CHANNELS 3 Xrotation Yrotation Zrotation
								JOINT LeftForeArmRoll
								{
									OFFSET 0.000000 -0.000001 7.054825
									CHANNELS 3 Xrotation Yrotation Zrotation
									JOINT LeftHand
									{
										OFFSET 0.000000 -0.000002 14.157501
										CHANNELS 3 Xrotation Yrotation Zrotation
										End Site
										{
											OFFSET 0.000000 0.000000 0.100006
										}
									}
								}
							}
						}
					}
				}
			}
		}
	}
	JOINT RightUpLeg
	{
		OFFSET -5.666161 0.871611 -1.039032
		CHANNELS 3 Xrotation Yrotation Zrotation
		JOINT RightUpLegRoll
		{
			OFFSET 0.000000 -0.000003 16.600502
			CHANNELS 3 Xrotation Yrotation Zrotation
			JOINT RightLeg
			{
				OFFSET 0.000000 0.000003 -20.557198
				CHANNELS 3 Xrotation Yrotation Zrotation
				JOINT RightLegRoll
				{
					OFFSET 0.000000 -0.000003 20.624397
					CHANNELS 3 Xrotation Yrotation Zrotation
					JOINT RightFoot
					{
						OFFSET 0.000000 -0.000003 17.166397
						CHANNELS 3 Xrotation Yrotation Zrotation
						JOINT RightToeBase
						{
							OFFSET 0.000000 -0.000003 14.350204
							CHANNELS 3 Xrotation Yrotation Zrotation
							End Site
							{
								OFFSET 0.006081 0.801060 6.949707
							}
						}
					}
				}
			}
		}
	}
	JOINT LeftUpLeg
	{
		OFFSET 5.666161 0.871611 -1.039032
		CHANNELS 3 Xrotation Yrotation Zrotation
		JOINT LeftUpLegRoll
		{
			OFFSET 0.000000 -0.000003 16.600601
			CHANNELS 3 Xrotation Yrotation Zrotation
			JOINT LeftLeg
			{
				OFFSET 0.000000 -0.000004 20.557098
				CHANNELS 3 Xrotation Yrotation Zrotation
				JOINT LeftLegRoll
				{
					OFFSET 0.000000 -0.000003 20.815102
					CHANNELS 3 Xrotation Yrotation Zrotation
					JOINT LeftFoot
					{
						OFFSET 0.000000 -0.000003 16.975708
						CHANNELS 3 Xrotation Yrotation Zrotation
						JOINT LeftToeBase
						{
							OFFSET 0.000000 -0.000003 14.350204
							CHANNELS 3 Xrotation Yrotation Zrotation
							End Site
							{
								OFFSET -0.027260 0.801060 6.949707
							}
						}
					}
				}
			}
		}
	}
}
MOTION
Frames: 9
Frame Time: 0.041667
54.144497 -14.946213 85.709908 -3.972631 2.308286 -3.574481 -0.886079 0.091557 -0.147969 2.230921 0.181687 -0.305821 3.875979 0.178011 -0.307997 5.193174 -5.132071 0.963715 0.162084 4.417281 1.427418 -5.887771 -63.080957 -7.275173 -45.701469 -114.746399 -39.661631 0.000000 -0.000014 -0.000001 4.171143 -14.603684 0.207968 -0.000008 0.000001 -3.003220 -5.000241 -7.998743 0.000186 -0.288073 53.457855 -0.368579 -34.564107 117.498897 31.078679 -0.000004 -0.000004 0.000002 2.894217 9.663993 0.302112 -0.000005 -0.000000 2.999999 -5.000250 7.998811 -0.000160 2.682819 -176.914385 0.772259 -179.999991 0.000005 -1.123998 174.455012 -3.547367 -0.548160 -0.000001 -0.000001 0.050359 68.628989 6.898366 2.138874 25.456957 -7.355616 -0.000000 2.290695 172.783705 -1.201230 -0.000005 -0.000004 -1.062140 -8.362538 0.967379 0.690206 0.000002 -0.000001 -0.068539 70.695682 -6.345351 -3.488753 25.457162 7.355619 -0.000334 
54.147198 -14.956015 85.709801 -3.968006 2.312829 -3.576543 -0.887614 0.091227 -0.148483 2.227850 0.181265 -0.306528 3.872908 0.177580 -0.308726 5.201143 -5.128012 0.962800 0.168735 4.412791 1.425528 -5.867796 -63.079686 -7.252024 -45.693235 -114.752314 -39.659046 -0.000000 -0.000013 -0.000002 4.178955 -14.605140 0.209651 -0.000005 0.000001 -3.003220 -5.000238 -7.998741 0.000186 -0.291932 53.456643 -0.364079 -34.556072 117.502285 31.081462 -0.000005 -0.000004 0.000002 2.911897 9.670117 0.300532 -0.000005 0.000000 3.000001 -5.000248 7.998812 -0.000160 2.678749 -176.923360 0.762093 -179.999991 0.000005 -1.124996 174.456200 -3.538414 -0.548215 -0.000001 -0.000001 0.050359 68.629925 6.898321 2.138906 25.456957 -7.355617 0.000001 2.279071 172.775659 -1.204783 -0.000005 -0.000005 -1.062210 -8.374673 0.968273 0.690589 0.000001 -0.000001 -0.068539 70.699329 -6.342865 -3.495322 25.457162 7.355619 -0.000335 
54.134396 -14.952412 85.698906 -3.963178 2.317441 -3.578709 -0.889203 0.090857 -0.149028 2.224671 0.180804 -0.307302 3.869738 0.177108 -0.309521 5.209442 -5.123762 0.962133 0.175100 4.408228 1.423853 -5.846746 -63.078252 -7.227628 -45.684291 -114.757956 -39.655918 -0.000003 -0.000014 -0.000001 4.187066 -14.606691 0.211402 -0.000008 0.000001 -3.003219 -5.000237 -7.998742 0.000185 -0.296036 53.455239 -0.359312 -34.546578 117.506383 31.082480 -0.000004 -0.000004 0.000002 2.929560 9.676079 0.298965 -0.000003 0.000000 3.000000 -5.000250 7.998811 -0.000161 2.674494 -176.931338 0.751718 -179.999991 0.000005 -1.124996 174.457443 -3.529461 -0.548269 -0.000001 -0.000001 0.050359 68.630854 6.898274 2.138939 25.456952 -7.355615 -0.000001 2.267122 172.766602 -1.208430 -0.000005 -0.000005 -1.062290 -8.387078 0.969222 0.690996 0.000001 -0.000001 -0.068539 70.703072 -6.340384 -3.501885 25.457158 7.355619 -0.000334 
54.139698 -14.952212 85.702103 -3.958192 2.322094 -3.580950 -0.890832 0.090459 -0.149595 2.221421 0.180314 -0.308120 3.866478 0.176609 -0.310363 5.217981 -5.119380 0.961640 0.181269 4.403608 1.422333 -5.824974 -63.076838 -7.202400 -45.675008 -114.763461 -39.652554 0.000002 -0.000014 -0.000001 4.195397 -14.608238 0.213199 -0.000008 0.000001 -3.003219 -5.000238 -7.998743 0.000185 -0.300312 53.453627 -0.354357 -34.536718 117.510399 31.083026 -0.000003 -0.000003 0.000002 2.947218 9.681923 0.297405 -0.000002 -0.000000 2.999999 -5.000249 7.998812 -0.000160 2.670096 -176.940326 0.741115 -179.999991 0.000004 -1.124996 174.458645 -3.519514 -0.548242 -0.000001 -0.000001 0.050359 68.631681 6.898221 2.139078 25.456955 -7.355613 -0.000002 2.254925 172.758543 -1.212071 -0.000004 -0.000004 -1.062390 -8.399692 0.970210 0.691421 0.000001 -0.000001 -0.068539 70.706904 -6.337835 -3.508633 25.457158 7.355619 -0.000334 
54.134995 -14.951710 85.709908 -3.953125 2.326777 -3.583244 -0.892481 0.090046 -0.150176 2.218120 0.179810 -0.308962 3.863178 0.176093 -0.311229 5.226659 -5.114918 0.961247 0.187325 4.398957 1.420903 -5.802764 -63.075349 -7.176658 -45.665555 -114.768898 -39.649050 0.000001 -0.000014 -0.000001 4.203850 -14.609780 0.215020 -0.000008 0.000001 -3.003220 -5.000238 -7.998742 0.000185 -0.304688 53.452015 -0.349294 -34.526497 117.514293 31.083190 -0.000003 -0.000004 0.000002 2.964856 9.687703 0.295846 -0.000004 0.000000 3.000000 -5.000249 7.998811 -0.000161 2.665637 -176.949301 0.730415 -179.999991 0.000005 -1.124996 174.459847 -3.509570 -0.548201 -0.000001 -0.000001 0.050359 68.632616 6.898176 2.139113 25.456955 -7.355615 0.000000 2.242601 172.749500 -1.215769 -0.000005 -0.000005 -1.062490 -8.412416 0.971219 0.691855 0.000001 -0.000001 -0.068539 70.710763 -6.335321 -3.515384 25.457160 7.355619 -0.000335 
54.125595 -14.935709 85.705101 -3.948035 2.331460 -3.585538 -0.894137 0.089629 -0.150758 2.214801 0.179300 -0.309812 3.859867 0.175573 -0.312100 5.235368 -5.110435 0.960875 0.193354 4.394304 1.419506 -5.780446 -63.073846 -7.150790 -45.657639 -114.773638 -39.647278 -0.000002 -0.000013 -0.000001 4.212324 -14.611422 0.216854 -0.000007 0.000001 -3.003220 -5.000240 -7.998742 0.000186 -0.309086 53.450298 -0.344204 -34.516265 117.518199 31.083317 -0.000003 -0.000004 0.000002 2.982498 9.693452 0.294290 -0.000004 -0.000000 3.000000 -5.000250 7.998812 -0.000160 2.661152 -176.957279 0.719733 -179.999991 0.000005 -1.124995 174.461063 -3.500616 -0.548256 -0.000001 -0.000001 0.050359 68.633559 6.898131 2.139144 25.456953 -7.355615 -0.000000 2.230233 172.741454 -1.219428 -0.000005 -0.000004 -1.062590 -8.425169 0.972233 0.692293 0.000002 -0.000001 -0.068539 70.714697 -6.332780 -3.522127 25.457162 7.355619 -0.000334 
54.127396 -14.938511 85.696709 -3.942993 2.336133 -3.587822 -0.895781 0.089219 -0.151335 2.211520 0.178800 -0.310648 3.856577 0.175062 -0.312961 5.244006 -5.105994 0.960453 0.199440 4.389664 1.418056 -5.758328 -63.072344 -7.125164 -45.648207 -114.779075 -39.643787 -0.000000 -0.000013 -0.000001 4.220747 -14.612968 0.218673 -0.000007 0.000001 -3.003220 -5.000239 -7.998741 0.000185 -0.313437 53.448696 -0.339170 -34.506235 117.522161 31.083651 -0.000003 -0.000004 0.000002 3.000145 9.699252 0.292724 -0.000002 -0.000000 3.000000 -5.000248 7.998811 -0.000161 2.656703 -176.966254 0.709059 -179.999991 0.000005 -1.124995 174.462279 -3.490670 -0.548216 -0.000001 -0.000001 0.050359 68.634385 6.898114 2.139189 25.456957 -7.355615 0.000000 2.217938 172.732383 -1.223113 -0.000005 -0.000005 -1.062690 -8.437865 0.973236 0.692727 0.000001 -0.000001 -0.068539 70.718536 -6.330236 -3.528873 25.457158 7.355619 -0.000334 
54.122196 -14.942915 85.698097 -3.938052 2.340776 -3.590045 -0.897396 0.088830 -0.151895 2.208280 0.178319 -0.311454 3.853348 0.174571 -0.313788 5.252484 -5.101642 0.959905 0.205664 4.385051 1.416497 -5.736784 -63.070909 -7.100187 -45.639112 -114.784648 -39.640574 -0.000001 -0.000015 -0.000001 4.229017 -14.614520 0.220458 -0.000008 0.000001 -3.003219 -5.000237 -7.998742 0.000186 -0.317664 53.447176 -0.334268 -34.496393 117.526150 31.084266 -0.000003 -0.000004 0.000003 3.017799 9.705132 0.291148 -0.000004 -0.000000 3.000000 -5.000249 7.998810 -0.000161 2.652347 -176.975242 0.698514 -179.999991 0.000005 -1.124996 174.463495 -3.481717 -0.548273 -0.000000 -0.000001 0.050359 68.635321 6.898070 2.139121 25.456955 -7.355614 -0.000000 2.205812 172.724337 -1.226729 -0.000005 -0.000004 -1.062780 -8.450418 0.974212 0.693149 0.000002 -0.000001 -0.068539 70.722374 -6.327725 -3.535527 25.457160 7.355619 -0.000334 
54.133595 -14.938410 85.698700 -3.933281 2.345359 -3.592186 -0.898974 0.088472 -0.152430 2.205140 0.177869 -0.312209 3.850196 0.174112 -0.314564 5.260682 -5.097462 0.959156 0.212117 4.380510 1.414759 -5.716055 -63.069434 -7.076175 -45.630376 -114.790359 -39.637603 -0.000001 -0.000014 -0.000002 4.237037 -14.616069 0.222193 -0.000007 0.000001 -3.003220 -5.000239 -7.998744 0.000185 -0.321693 53.445865 -0.329584 -34.487094 117.530316 31.085530 -0.000006 -0.000003 0.000002 3.035475 9.711138 0.289553 -0.000003 0.000000 2.999999 -5.000252 7.998811 -0.000161 2.648138 -176.983220 0.688224 -179.999991 0.000004 -1.124996 174.464710 -3.471771 -0.547236 -0.000001 -0.000001 0.050358 68.636243 6.897989 2.139250 25.456953 -7.355617 0.000001 2.193951 172.716291 -1.230297 -0.000005 -0.000004 -1.062860 -8.462744 0.975145 0.693551 0.000002 -0.000000 -0.068539 70.726117 -6.325209 -3.542188 25.457160 7.355620 -0.000335 
